HIERARCHY
ROOT Hips
{
	OFFSET 193.743393 91.357132 495.993408
	CHANNELS 6 Xposition Yposition Zposition Zrotation Yrotation Xrotation 
	JOINT LeftUpLeg
	{
		OFFSET 0.103458 1.857834 10.548510
		CHANNELS 3 Zrotation Yrotation Xrotation
		JOINT LeftLeg
		{
			OFFSET 43.500004 -0.000038 -0.000006
			CHANNELS 3 Zrotation Yrotation Xrotation
			JOINT LeftFoot
			{
				OFFSET 42.372192 0.000015 -0.000002
				CHANNELS 3 Zrotation Yrotation Xrotation
				JOINT LeftToe
				{
					OFFSET 17.300009 0.000003 -0.000006
					CHANNELS 3 Zrotation Yrotation Xrotation
					End Site
					{
						OFFSET 0.000000 0.000000 0.000000
					}
				}
			}
		}
	}
	JOINT RightUpLeg
	{
		OFFSET 0.103463 1.857841 -10.548498
		CHANNELS 3 Zrotation Yrotation Xrotation
		JOINT RightLeg
		{
			OFFSET 43.500042 -0.000046 0.000025
			CHANNELS 3 Zrotation Yrotation Xrotation
			JOINT RightFoot
			{
				OFFSET 42.372261 -0.000008 -0.000003
				CHANNELS 3 Zrotation Yrotation Xrotation
				JOINT RightToe
				{
					OFFSET 17.300001 -0.000003 0.000011
					CHANNELS 3 Zrotation Yrotation Xrotation
					End Site
					{
						OFFSET 0.000000 0.000000 0.000000
					}
				}
			}
		}
	}
	JOINT Spine
	{
		OFFSET 6.901968 -2.603734 0.000007
		CHANNELS 3 Zrotation Yrotation Xrotation
		JOINT Spine1
		{
			OFFSET 12.588101 0.000000 -0.000008
			CHANNELS 3 Zrotation Yrotation Xrotation
			JOINT Spine2
			{
				OFFSET 12.343197 0.000010 -0.000007
				CHANNELS 3 Zrotation Yrotation Xrotation
				JOINT Neck
				{
					OFFSET 25.832905 -0.000008 0.000010
					CHANNELS 3 Zrotation Yrotation Xrotation
					JOINT Head
					{
						OFFSET 11.766598 -0.000002 -0.000010
						CHANNELS 3 Zrotation Yrotation Xrotation
						End Site
						{
							OFFSET 0.000000 0.000000 0.000000
						}
					}
				}
				JOINT LeftShoulder
				{
					OFFSET 19.745899 -1.480373 6.000105
					CHANNELS 3 Zrotation Yrotation Xrotation
					JOINT LeftArm
					{
						OFFSET 11.284138 -0.000004 -0.000017
						CHANNELS 3 Zrotation Yrotation Xrotation
						JOINT LeftForeArm
						{
							OFFSET 33.000050 0.000013 0.000033
							CHANNELS 3 Zrotation Yrotation Xrotation
							JOINT LeftHand
							{
								OFFSET 25.200001 -0.000009 -0.000001
								CHANNELS 3 Zrotation Yrotation Xrotation
								End Site
								{
									OFFSET 0.000000 0.000000 0.000000
								}
							}
						}
					}
				}
				JOINT RightShoulder
				{
					OFFSET 19.746101 -1.480377 -6.000072
					CHANNELS 3 Zrotation Yrotation Xrotation
					JOINT RightArm
					{
						OFFSET 11.284133 -0.000004 -0.000014
						CHANNELS 3 Zrotation Yrotation Xrotation
						JOINT RightForeArm
						{
							OFFSET 33.000099 0.000009 0.000023
							CHANNELS 3 Zrotation Yrotation Xrotation
							JOINT RightHand
							{
								OFFSET 25.199770 0.000143 0.000407
								CHANNELS 3 Zrotation Yrotation Xrotation
								End Site
								{
									OFFSET 0.000000 0.000000 0.000000
								}
							}
						}
					}
				}
			}
		}
	}
}
MOTION
Frames: 17
Frame Time: 0.033333
58.55962 88.793709 493.019104 89.330275 4.056869 4.193177 157.59387 3.983202 168.37714 -31.021862 0.804723 -1.920973 79.409186 2.207502 3.421175 21.454553 0.003092 -0.0 163.833576 10.164705 -179.167282 -74.989589 -4.355293 -1.987165 66.164862 5.992895 11.312001 21.45456 -0.003108 -1.8e-05 6.781899 -0.548869 0.76345 3.54376 -1.120577 1.510041 3.225709 -1.111303 1.516782 7.68487 -1.519238 0.357113 -9.748094 -13.182259 4.037655 -156.17315 -82.545042 -25.676553 8.85195 65.190338 60.249174 -28.094603 -11.828798 0.990271 11.908792 4.219349 -9.054339 169.909398 77.355704 -8.849156 -30.668495 -41.374629 24.790151 -105.351802 1.377776 -3.128681 -17.183781 17.65023 -16.258179 
55.44257 88.865173 494.006195 88.494977 4.131429 3.653686 159.771416 4.187195 167.774185 -32.720212 0.785857 -1.975207 82.009084 2.172029 3.520407 21.454551 0.003092 -0.0 159.828161 9.449905 179.507794 -80.018446 -4.275984 1.187885 67.949215 3.482088 11.357117 21.454558 -0.003109 -1.7e-05 6.898239 -0.536597 0.525869 3.778901 -1.089913 1.0342 3.460792 -1.083511 1.040764 9.37634 -1.928099 0.987304 -8.556497 -14.992241 5.026452 -158.42729 -82.205049 -23.401111 3.535635 64.06936 57.13721 -29.406399 -12.528903 1.05937 11.811923 1.775498 -9.739422 173.109396 78.126504 -5.56377 -35.60272 -38.636874 29.621475 -109.000086 1.311711 -3.284151 -19.043177 19.103745 -17.763871 
52.37529 88.985474 494.727112 87.930653 3.915815 3.897888 161.901903 4.068893 167.569143 -33.877318 0.608097 -1.672451 84.169316 1.923543 3.68137 21.454551 0.003095 1e-06 156.352046 8.273194 179.553652 -81.956956 -4.398284 3.537154 70.205766 0.911181 9.595411 21.454555 -0.00311 -1.7e-05 6.958432 -0.479398 0.284106 3.901821 -0.968038 0.552099 3.583689 -0.964548 0.557938 11.164441 -2.170971 1.277814 -7.382605 -16.679983 5.631424 -164.720585 -82.342807 -17.028056 -2.737969 62.888796 52.926166 -29.50237 -12.613858 1.066645 12.316019 -2.196411 -10.943659 177.047191 78.754103 -1.537709 -39.383964 -36.076345 33.538664 -112.70211 1.302367 -3.443435 -21.336403 21.441627 -19.15011 
49.335049 89.21859 495.272888 87.657473 3.604778 4.710022 164.119993 3.805297 167.355221 -34.222291 0.498998 -0.936306 85.813841 1.371276 3.712795 21.454548 0.003094 0.0 153.3937 7.035095 -179.560701 -80.744297 -4.604548 5.241964 72.04739 -0.346773 10.044571 21.454553 -0.003108 -1.7e-05 6.960851 -0.411628 0.030839 3.908783 -0.8241 0.047923 3.590648 -0.823659 0.052901 12.841801 -2.474788 1.397938 -6.025089 -17.950623 5.883402 -174.288519 -82.918804 -7.347007 -8.836553 61.967608 48.090324 -28.863355 -12.597767 1.053782 13.344483 -5.59132 -12.113051 -178.491804 79.278716 3.012041 -42.109735 -33.556726 36.234891 -116.557602 1.22158 -3.601001 -24.242911 24.714117 -20.485827 
46.364609 89.48304 495.7612 87.675395 3.551203 5.724426 166.291214 3.820296 167.171995 -33.934794 0.467906 -0.121567 86.818295 0.78102 3.684809 21.454553 0.003093 0.0 151.019977 6.003403 -178.575583 -76.909754 -4.652844 6.093189 75.594321 -1.281591 10.084289 21.454563 -0.003107 -1.7e-05 6.921823 -0.398185 -0.251662 3.832665 -0.78797 -0.516224 3.514533 -0.790937 -0.511452 14.161983 -2.941837 1.554112 -4.561226 -18.822502 6.008042 175.470743 -83.526131 2.992991 -14.075031 61.186727 42.907586 -28.395685 -12.941816 1.06747 14.336036 -7.091849 -12.674273 -174.131397 79.816477 7.453155 -44.381695 -30.71629 37.736143 -120.470303 1.288907 -3.767016 -28.087888 28.430659 -22.658951 
43.39555 89.662003 496.225708 87.937873 3.715282 6.803712 168.473432 4.069306 167.366136 -33.177169 0.281714 0.533005 87.741969 0.309181 3.643003 21.454555 0.003091 -0.0 148.759895 5.220994 -177.911702 -71.051849 -4.492774 6.236384 76.853787 -1.45665 10.351399 21.454557 -0.003111 -1.7e-05 6.856154 -0.429969 -0.557782 3.703703 -0.842153 -1.12889 3.385634 -0.848816 -1.123783 15.136715 -3.409591 1.789264 -3.37248 -19.471995 6.188816 166.313617 -83.935279 12.223332 -17.977831 60.267793 37.953452 -28.806726 -13.770591 1.128268 14.722259 -6.996455 -12.52899 -170.085903 80.387181 11.567349 -46.454821 -27.470698 38.658693 -124.395203 1.421663 -3.932993 -33.0658 31.533733 -26.197363 
40.410419 89.738838 496.668488 88.370934 3.902693 7.969484 170.619587 4.338105 168.029743 -32.197146 -0.078542 0.99786 88.701788 -0.021449 3.637772 21.454557 0.003088 -0.0 147.374022 4.612902 -177.232849 -62.990887 -4.241006 6.021745 78.122707 -1.203427 11.31308 21.454555 -0.003108 -1.7e-05 6.777765 -0.47309 -0.853853 3.549711 -0.920186 -1.721665 3.231721 -0.930428 -1.716076 15.915507 -3.616453 1.996588 -2.586916 -19.982285 6.390529 157.342137 -84.126702 21.260904 -20.577389 59.097126 33.975547 -30.218365 -14.92202 1.228917 14.405465 -6.487137 -12.123599 -165.848796 80.915694 15.868806 -48.364358 -23.809152 39.311799 -128.242908 1.610755 -4.094175 -38.551169 33.331197 -30.529713 
37.42886 89.840202 497.10141 88.901653 3.740945 9.24408 172.844439 4.374407 169.091838 -30.731671 -0.350361 1.295553 89.593333 -0.24882 3.574923 21.454553 0.003093 0.0 146.889666 3.997803 -176.115813 -52.910177 -3.922178 5.456531 77.973904 -0.892383 11.065861 21.454555 -0.003109 -1.7e-05 6.685218 -0.456214 -1.098356 3.366175 -0.880827 -2.209382 3.048294 -0.894013 -2.204023 16.631731 -3.490682 2.073583 -1.977138 -20.28776 6.460375 147.621903 -84.110576 31.05339 -22.326374 57.769173 31.474164 -32.282671 -16.264514 1.357011 13.657887 -6.443695 -11.785455 -160.571901 81.412515 21.217115 -50.133305 -19.818719 39.573276 -132.009703 1.876481 -4.251562 -43.264474 34.082398 -34.307176 
34.430962 89.779091 497.539398 89.563471 3.574496 10.622497 175.047066 4.565003 170.343934 -29.045567 -0.329664 1.426975 90.780618 -0.40093 3.371322 21.454551 0.00309 -0.0 147.145743 3.617996 -174.750554 -41.080716 -3.644177 4.212896 75.900545 -0.14286 10.01719 21.454557 -0.003108 -1.8e-05 6.561896 -0.447216 -1.287706 3.120727 -0.860197 -2.58687 2.802947 -0.875661 -2.581629 17.377714 -3.057741 1.979898 -1.327861 -20.385459 6.314747 137.925193 -83.902945 40.826083 -23.562143 56.4359 30.311341 -34.659757 -17.777137 1.506693 12.776203 -6.945169 -11.171042 -153.222385 81.900368 28.65528 -51.788731 -15.519607 39.437622 -135.519901 2.126539 -4.392527 -46.543942 34.383046 -36.765645 
31.491011 89.691063 497.964813 90.234333 3.028038 12.021118 177.503735 4.533799 172.006717 -26.591062 -0.161737 1.195206 92.159292 -0.341401 3.018698 21.454553 0.003091 0.0 148.523119 2.956102 -173.562593 -27.415307 -3.272684 2.490234 73.275922 1.029255 9.167348 21.454558 -0.003108 -1.7e-05 6.413054 -0.375149 -1.395867 2.822119 -0.71688 -2.800337 2.504379 -0.733636 -2.79596 18.244033 -2.361317 1.735281 -0.630699 -20.35771 5.987064 129.760193 -83.607417 49.057847 -24.621671 55.341468 29.548488 -37.226177 -19.295739 1.666286 11.857184 -7.600441 -9.679484 -143.296249 82.321668 38.687233 -53.241977 -11.273209 39.181869 -138.354593 2.359329 -4.504089 -48.745547 34.019642 -38.544393 
28.355141 89.175163 498.400208 90.800002 3.359393 13.548583 -179.961032 5.128005 173.633244 -24.853991 0.045715 1.018341 93.849565 -0.32125 2.619333 21.454553 0.003092 0.0 150.657103 2.951004 -173.789218 -14.688757 -3.407019 1.626598 72.839098 2.035765 10.266022 21.454558 -0.003108 -1.6e-05 6.296154 -0.495055 -1.48621 2.592017 -0.95751 -2.982991 2.274325 -0.975362 -2.97716 19.391756 -1.433121 1.401928 0.124743 -20.23226 5.540872 123.745911 -83.363777 55.118988 -25.58043 54.445122 28.542671 -39.836614 -20.528004 1.814147 10.908088 -7.989377 -7.277003 -131.94987 82.533363 50.143161 -54.41639 -7.179383 39.254733 -140.376015 2.652432 -4.590035 -49.463731 32.376685 -39.94199 
25.02286 88.371529 498.809204 91.070218 4.303371 15.005615 -177.568034 5.729003 174.788666 -24.632 0.048704 1.302555 95.535099 -0.575352 2.304462 21.454553 0.00309 -1e-06 150.839455 3.536605 -174.702934 -10.82869 -3.810654 2.875123 76.726787 1.039071 11.236474 21.454558 -0.003108 -1.8e-05 6.2607 -0.759513 -1.519825 2.528611 -1.486474 -3.055758 2.210867 -1.504756 -3.046736 20.907603 -0.388546 1.070742 1.077934 -19.913329 5.010924 119.96965 -83.280374 58.916536 -26.566939 53.806779 27.142576 -42.16982 -21.324476 1.93111 9.947563 -8.113863 -4.793865 -121.77827 82.498836 60.409253 -55.178831 -3.707055 39.767817 -141.756096 2.922867 -4.652446 -47.788003 30.317885 -39.917111 
21.876631 87.784927 499.035095 90.934967 4.479008 15.991027 -175.591364 4.971802 175.112595 -25.28124 -0.272079 2.025272 96.74659 -1.097436 1.980328 21.454551 0.003092 0.0 151.835296 3.233003 -173.523975 -11.831792 -3.810275 4.440652 76.301532 -0.310746 10.27031 21.454557 -0.003109 -1.6e-05 6.292264 -0.88708 -1.4097 2.593578 -1.74312 -2.838809 2.275742 -1.760088 -2.828237 22.717071 0.564572 0.830216 2.20986 -19.345257 4.472105 118.712212 -83.36487 60.170415 -27.416383 53.65493 25.62737 -43.953456 -21.826119 2.016314 9.154026 -8.198726 -2.990197 -114.465535 82.372491 67.78807 -55.529622 -1.476634 40.706565 -142.561088 2.981885 -4.681403 -44.321087 29.32122 -37.663524 
18.673189 87.658478 499.029602 90.386953 3.689398 16.747803 -174.078709 2.750001 174.411954 -26.778284 -0.595771 3.207456 96.435557 -1.91118 1.616769 21.454555 0.003092 0.0 152.202979 2.0457 -170.8802 -14.938319 -4.124487 4.256284 71.371536 -0.669652 7.33347 21.454558 -0.003108 -1.8e-05 6.373174 -0.805638 -1.233308 2.750944 -1.582398 -2.485254 2.433039 -1.597234 -2.475657 24.678368 1.277936 0.727294 3.239365 -18.675593 4.057786 120.421727 -83.529737 58.440963 -27.60576 54.175633 24.56594 -45.066695 -22.20933 2.0754 8.691484 -8.57736 -2.254091 -109.821901 82.327726 72.467125 -55.654243 -0.606997 41.853244 -142.975503 2.932675 -4.69054 -40.406846 29.186115 -34.098002 
15.2629 87.95594 498.873901 89.658213 2.668999 17.482482 -173.708431 -0.136703 172.762422 -30.390244 -0.615699 4.843984 93.521477 -3.036733 1.237488 21.454551 0.003093 -1e-06 152.576932 0.3533 -170.014774 -18.147661 -4.499186 3.976324 68.039558 -2.196578 1.852657 21.454557 -0.003108 -1.8e-05 6.492421 -0.651328 -1.0618 2.98408 -1.275615 -2.139867 2.666147 -1.288374 -2.132126 26.740404 1.785235 0.761132 3.92894 -18.110542 3.852685 124.319784 -83.662591 54.517245 -26.863752 55.314185 24.41984 -45.295424 -22.475665 2.100205 8.623 -9.460043 -2.772979 -107.547114 82.39081 74.751004 -55.588034 -0.692164 42.935758 -143.210912 2.941572 -4.698288 -36.428759 28.502603 -30.619851 
11.83191 88.227089 498.603088 89.002385 1.58883 18.252933 -174.935406 -3.405702 170.83762 -36.169226 -0.202308 6.871167 88.274041 -4.347736 1.634063 21.454551 0.00309 1e-06 153.188876 -1.302094 -171.755898 -21.754161 -3.713629 5.382442 70.225464 -4.126301 -0.79858 21.45456 -0.003109 -1.7e-05 6.607716 -0.473653 -0.900962 3.210015 -0.922595 -1.814558 2.892044 -0.933399 -1.808951 28.939699 2.194176 0.900454 4.249392 -17.64961 3.827578 127.780928 -83.725613 51.036434 -25.223055 56.842187 25.322759 -44.370401 -22.458968 2.07092 8.935417 -10.614374 -4.459913 -108.089151 82.510195 74.195887 -55.327859 -0.84485 43.722346 -143.438603 2.996365 -4.70903 -31.881779 26.447355 -27.478271 
8.462349 88.450417 498.311401 88.537072 0.588879 18.991882 -178.371319 -6.787003 169.902977 -44.663351 0.500932 8.178514 79.79682 -5.767267 -0.353626 21.454543 0.003096 1e-06 154.072279 -2.622297 -172.954118 -24.68818 -2.617245 6.830657 73.72483 -5.123006 -0.867413 21.45456 -0.003108 -1.7e-05 6.690447 -0.304707 -0.728142 3.371872 -0.588447 -1.464738 3.053871 -0.597144 -1.461155 31.128556 2.544282 1.052502 4.269852 -17.162083 3.85179 128.496649 -83.801285 50.311279 -22.984848 58.658553 26.963169 -42.428438 -21.989171 1.982439 9.587185 -11.319287 -6.61558 -110.606738 82.634518 71.652919 -54.825713 -0.477873 43.871135 -143.641282 3.05714 -4.719409 -27.505455 23.977799 -24.638811 
